<svg width="751" height="228" viewBox="0 0 751 228" fill="none" xmlns="http://www.w3.org/2000/svg">
<path d="M61.813 0H156.141C157.047 0 157.84 0.608941 158.074 1.48423L217.329 223.484C217.667 224.754 216.71 226 215.396 226H134C134.429 221.431 134.636 216.918 134.071 213.979C132.831 207.529 131.961 205.419 132.211 202.069C132.461 198.719 132.461 195.869 130.851 193.259C129.241 190.649 128.371 190.409 128.621 188.419C128.871 186.439 128.001 177.999 122.671 167.459C117.341 156.919 113.861 154.809 112.751 151.339C111.631 147.869 109.771 144.019 110.761 143.399C111.751 142.779 113.861 137.319 114.361 132.859C114.861 128.399 116.721 125.049 117.461 122.319C118.211 119.589 119.451 117.109 119.821 115.989C120.191 114.869 120.691 113.759 120.941 114.379C121.191 114.999 124.661 121.199 130.861 123.679C137.061 126.159 146.241 126.909 148.841 127.769C151.441 128.639 153.551 128.639 154.671 126.899C155.791 125.159 158.391 120.819 159.761 118.959C161.121 117.099 162.861 107.179 163.111 102.709C163.361 98.2386 164.231 94.5186 164.231 93.0386C164.231 91.5586 163.481 89.4386 162.991 88.5686C162.491 87.6986 160.631 85.5886 159.391 84.7286C158.151 83.8586 155.171 81.0086 154.681 81.1286C154.181 81.2486 151.831 82.1186 150.591 82.2486C149.351 82.3686 148.111 83.6086 147.991 84.2286C147.871 84.8486 147.491 87.0786 148.491 87.9486C149.481 88.8186 149.861 88.9386 149.861 88.9386C149.861 88.9386 150.111 90.5486 150.481 90.6786C150.851 90.7986 151.221 91.0486 151.221 91.0486C151.221 91.0486 151.721 91.9186 152.091 92.1686L152.461 92.4186C152.461 92.4186 153.081 93.5386 153.951 93.7786C154.821 94.0286 156.061 93.4086 156.061 93.4086C156.061 93.4086 156.311 93.6586 156.681 93.9086L157.051 94.1586C157.051 94.1586 156.681 97.3786 156.061 98.7486C155.441 100.109 152.711 104.699 151.351 105.819C149.981 106.939 146.761 110.409 146.761 110.409C146.761 110.409 145.521 110.159 145.271 109.789C145.021 109.419 145.271 105.199 141.301 103.089C137.331 100.979 135.101 102.219 135.101 102.219C135.101 102.219 134.601 97.7486 129.521 94.0286C124.431 90.3086 122.701 90.4286 122.701 90.4286C122.701 90.4286 121.581 88.1986 120.711 87.6986C119.841 87.1986 119.101 86.5786 119.101 85.7086C119.101 84.8386 119.721 83.2286 120.091 83.2286C120.461 83.2286 121.951 84.4686 122.451 85.3386C122.951 86.2086 124.931 88.3186 126.671 87.9386C128.411 87.5686 128.651 85.9586 129.271 85.4586C129.891 84.9586 130.511 85.3386 130.641 84.9586L130.761 84.5886C130.761 84.5886 131.631 84.7086 132.251 84.2186C132.871 83.7186 133.491 82.2386 133.491 82.2386C133.491 82.2386 134.731 83.1086 135.721 82.9786C136.711 82.8586 136.091 81.6086 136.591 80.3686C137.091 79.1286 137.711 76.8986 138.331 76.8986C138.951 76.8986 139.941 76.6486 140.691 75.5386C141.441 74.4186 141.931 72.0686 142.551 71.9386L143.171 71.8186C143.171 71.8186 144.041 71.3186 144.411 70.9486L144.781 70.5786C144.781 70.5786 144.781 71.4486 144.041 72.0686C143.301 72.6886 142.801 72.8086 142.801 72.8086C142.801 72.8086 144.041 72.8086 144.411 72.3086L144.781 71.8086C144.781 71.8086 145.031 72.4286 144.531 72.7986L144.031 73.1686C144.031 73.1686 146.141 71.9286 146.641 70.6886C147.141 69.4486 147.381 69.0786 147.381 69.0786C147.381 69.0786 147.881 68.9586 148.001 69.4486C148.121 69.9486 148.121 70.4386 148.121 70.4386C148.121 70.4386 148.741 69.5686 148.621 68.8286L148.501 68.0886C148.501 68.0886 149.001 67.7186 149.251 68.3386L149.501 68.9586C149.501 68.9586 149.501 67.5986 148.761 66.9786L148.011 66.3586C148.011 66.3586 147.141 63.9986 148.131 64.4986C148.62 64.7456 148.868 65.0219 148.993 65.2383C148.757 64.5017 148.337 62.976 149.001 63.2586C149.871 63.6286 149.871 63.8786 149.871 63.8786C149.871 63.8786 149.751 61.7686 148.501 61.0286C147.261 60.2786 145.521 57.0586 145.651 56.3186C145.771 55.5786 146.271 56.0686 146.271 56.0686C146.271 56.0686 146.021 54.0786 144.911 53.2186C143.791 52.3486 141.441 49.8686 139.701 49.1286C137.961 48.3886 136.601 47.3886 136.601 47.3886L137.721 47.0186C137.721 47.0186 136.361 46.8986 135.121 47.2686C133.881 47.6386 131.901 46.7686 129.041 47.5186C126.191 48.2586 120.111 50.8686 116.511 56.3286C112.911 61.7886 112.541 62.7786 112.541 62.7786C112.541 62.7786 112.911 62.6586 112.911 63.0286C112.911 63.3986 113.031 65.3886 111.551 66.2586C110.061 67.1286 108.081 68.9886 105.601 69.1086C103.121 69.2286 99.1511 67.3686 95.4311 67.8686C91.7111 68.3686 92.0812 69.2286 91.2112 69.1086C90.3412 68.9886 86.9912 68.8586 84.5112 70.5986C82.0312 72.3386 81.2911 75.4386 80.0511 76.0586C78.8111 76.6786 72.8612 84.6186 71.0012 88.2186C69.1412 91.8186 69.6312 93.6786 68.3912 95.9086C67.1512 98.1386 66.5312 99.8786 66.9012 100.619C67.2712 101.359 65.1612 109.179 69.2612 117.859C73.3512 126.539 75.5812 130.879 75.2112 131.629C74.8412 132.369 74.0912 133.609 74.0912 134.229V135.969C74.0912 135.969 68.3812 138.949 66.6512 147.749C64.9112 156.559 68.0212 163.379 68.0212 163.379L67.9311 163.349C68.4311 165.209 67.9311 178.729 68.8011 185.429C69.6711 192.129 70.7911 197.709 69.6711 202.669C68.5511 207.629 64.7112 217.309 66.4412 225.369V226H2.60333C1.28924 226 0.332239 224.754 0.670884 223.485L59.8805 1.4846C60.114 0.609132 60.9069 0 61.813 0Z" fill="#374FFB"/>
<path d="M209.177 112.363C208.719 112.363 208.319 112.052 208.208 111.607L200.71 81.7891C200.552 81.1576 201.029 80.5453 201.68 80.5453H333.818C334.37 80.5453 334.818 80.993 334.818 81.5453V111.363C334.818 111.916 334.37 112.363 333.818 112.363H291.068V225C291.068 225.552 290.62 226 290.068 226H253.148C252.595 226 252.148 225.552 252.148 225V112.363H209.177Z" fill="white"/>
<path d="M355.68 226C355.127 226 354.68 225.552 354.68 225V81.5453C354.68 80.993 355.127 80.5453 355.68 80.5453H393.168C393.721 80.5453 394.168 80.993 394.168 81.5453V194.182H461.613C462.288 194.182 462.769 194.837 462.567 195.481L453.195 225.3C453.064 225.716 452.678 226 452.241 226H355.68Z" fill="white"/>
<path d="M516.936 225.289C516.809 225.711 516.42 226 515.979 226H475.491C474.81 226 474.328 225.333 474.541 224.686L521.893 81.2318C522.028 80.8221 522.411 80.5453 522.842 80.5453H575.374C575.805 80.5453 576.188 80.8221 576.323 81.2318L623.674 224.686C623.888 225.333 623.406 226 622.725 226H582.237C581.796 226 581.407 225.711 581.28 225.289L549.676 120.602H548.54L516.936 225.289ZM508.767 168.613H588.881V198.159H508.767V168.613Z" fill="white"/>
<path d="M711.785 126C711.264 126 710.833 125.599 710.77 125.081C710.244 120.785 708.5 117.398 705.536 114.92C702.411 112.269 697.652 110.943 691.26 110.943C687.188 110.943 683.85 111.44 681.246 112.434C678.689 113.381 676.795 114.684 675.564 116.341C674.333 117.998 673.694 119.892 673.646 122.023C673.552 123.774 673.859 125.361 674.57 126.781C675.327 128.154 676.511 129.409 678.121 130.545C679.731 131.634 681.79 132.629 684.3 133.528C686.809 134.428 689.792 135.233 693.249 135.943L705.18 138.5C713.23 140.204 720.119 142.453 725.848 145.247C731.577 148.041 736.265 151.331 739.91 155.119C743.556 158.86 746.231 163.074 747.936 167.761C749.688 172.449 750.588 177.562 750.635 183.102C750.588 192.666 748.196 200.763 743.462 207.392C738.727 214.021 731.956 219.063 723.149 222.52C714.39 225.976 703.855 227.704 691.544 227.704C678.902 227.704 667.87 225.834 658.447 222.094C649.072 218.353 641.781 212.6 636.572 204.835C631.554 197.239 628.953 187.583 628.77 175.868C628.761 175.314 629.21 174.863 629.764 174.863H665.312C665.843 174.863 666.28 175.28 666.324 175.81C666.661 179.847 667.752 183.272 669.598 186.085C671.587 189.115 674.38 191.412 677.979 192.974C681.625 194.537 685.957 195.318 690.976 195.318C695.19 195.318 698.717 194.797 701.558 193.756C704.399 192.714 706.553 191.27 708.021 189.423C709.489 187.577 710.247 185.47 710.294 183.102C710.247 180.877 709.513 178.935 708.092 177.278C706.719 175.574 704.446 174.059 701.274 172.733C698.102 171.36 693.817 170.081 688.419 168.898L673.93 165.773C661.052 162.979 650.895 158.315 643.462 151.781C636.075 145.2 632.406 136.227 632.453 124.863C632.406 115.631 634.868 107.558 639.839 100.645C644.858 93.6845 651.795 88.2631 660.649 84.3805C669.551 80.4979 679.754 78.5566 691.26 78.5566C703.002 78.5566 713.159 80.5216 721.729 84.4515C730.299 88.3815 736.904 93.9212 741.544 101.071C746.066 107.922 748.429 115.896 748.633 124.995C748.645 125.549 748.196 126 747.641 126H711.785Z" fill="white"/>
</svg>
