<svg width="1200" height="1200" viewBox="0 0 1200 1200" fill="none" xmlns="http://www.w3.org/2000/svg">
<path d="M1000 0H200C89.5431 0 0 89.5431 0 200V1000C0 1110.46 89.5431 1200 200 1200H1000C1110.46 1200 1200 1110.46 1200 1000V200C1200 89.5431 1110.46 0 1000 0Z" fill="#4945FF"/>
<path d="M454.302 257H746.558C747.464 257 748.258 257.61 748.491 258.485L930.331 941.485C930.669 942.755 929.712 944 928.398 944H676.304C677.603 930.111 678.232 916.394 676.519 907.457C672.759 887.85 670.121 881.436 670.879 871.253C671.637 861.069 671.637 852.406 666.755 844.472C661.873 836.538 659.235 835.808 659.993 829.759C660.752 823.74 658.114 798.084 641.952 766.044C625.791 734.005 615.24 727.591 611.874 717.043C608.478 706.494 602.838 694.791 605.84 692.906C608.842 691.022 615.24 674.424 616.756 660.867C618.272 647.309 623.911 637.126 626.155 628.827C628.429 620.528 632.189 612.989 633.311 609.585C634.433 606.18 635.949 602.806 636.707 604.691C637.465 606.575 647.986 625.422 666.785 632.961C685.584 640.5 713.419 642.78 721.303 645.394C729.186 648.039 735.584 648.039 738.98 642.749C742.376 637.46 750.259 624.267 754.413 618.613C758.537 612.959 763.813 582.804 764.571 569.216C765.329 555.628 767.967 544.32 767.967 539.821C767.967 535.322 765.693 528.877 764.207 526.233C762.691 523.588 757.051 517.174 753.292 514.56C749.532 511.915 740.496 503.252 739.01 503.617C737.494 503.981 730.369 506.626 726.609 507.021C722.849 507.386 719.089 511.155 718.725 513.04C718.362 514.925 717.209 521.703 720.241 524.348C723.243 526.993 724.395 527.358 724.395 527.358C724.395 527.358 725.153 532.252 726.275 532.647C727.397 533.012 728.519 533.772 728.519 533.772C728.519 533.772 730.035 536.416 731.157 537.176L732.279 537.936C732.279 537.936 734.159 541.341 736.797 542.07C739.435 542.83 743.195 540.946 743.195 540.946C743.195 540.946 743.953 541.705 745.074 542.465L746.196 543.225C746.196 543.225 745.074 553.014 743.195 557.178C741.315 561.312 733.037 575.265 728.913 578.67C724.759 582.074 714.996 592.623 714.996 592.623C714.996 592.623 711.236 591.863 710.478 590.738C709.72 589.613 710.478 576.785 698.441 570.371C686.403 563.957 679.642 567.726 679.642 567.726C679.642 567.726 678.126 554.138 662.722 542.83C647.289 531.522 642.043 531.887 642.043 531.887C642.043 531.887 638.647 525.108 636.01 523.588C633.372 522.068 631.128 520.184 631.128 517.539C631.128 514.894 633.008 510 634.13 510C635.252 510 639.769 513.77 641.285 516.414C642.801 519.059 648.805 525.473 654.081 524.318C659.357 523.193 660.085 518.299 661.964 516.779C663.844 515.259 665.724 516.414 666.118 515.259L666.482 514.134C666.482 514.134 669.12 514.499 671 513.01C672.88 511.49 674.76 506.991 674.76 506.991C674.76 506.991 678.52 509.635 681.522 509.24C684.523 508.875 682.643 505.076 684.159 501.306C685.676 497.537 687.555 490.758 689.435 490.758C691.315 490.758 694.317 489.998 696.591 486.624C698.865 483.219 700.351 476.076 702.231 475.681L704.111 475.316C704.111 475.316 706.749 473.796 707.871 472.671L708.992 471.546C708.992 471.546 708.992 474.191 706.749 476.076C704.505 477.96 702.989 478.325 702.989 478.325C702.989 478.325 706.749 478.325 707.871 476.805L708.992 475.285C708.992 475.285 709.751 477.17 708.234 478.295L706.718 479.42C706.718 479.42 713.116 475.65 714.632 471.881C716.148 468.111 716.876 466.987 716.876 466.987C716.876 466.987 718.392 466.622 718.756 468.111C719.12 469.631 719.12 471.121 719.12 471.121C719.12 471.121 721 468.476 720.636 466.227L720.272 463.977C720.272 463.977 721.788 462.852 722.546 464.737L723.304 466.622C723.304 466.622 723.304 462.488 721.06 460.603L718.786 458.718C718.786 458.718 716.148 451.544 719.15 453.064C720.633 453.815 721.383 454.655 721.763 455.313C721.048 453.074 719.773 448.436 721.788 449.295C724.29 450.362 724.419 451.1 724.425 451.174C724.412 450.953 723.995 444.726 720.272 442.516C716.512 440.236 711.236 430.448 711.63 428.199C711.994 425.949 713.51 427.439 713.51 427.439C713.51 427.439 712.752 421.389 709.387 418.775C705.991 416.13 698.865 408.592 693.589 406.342C688.313 404.093 684.19 401.053 684.19 401.053L687.586 399.928C687.586 399.928 683.462 399.563 679.702 400.688C675.942 401.813 669.939 399.168 661.267 401.448C652.625 403.698 634.19 411.631 623.275 428.229C612.359 444.826 611.237 447.836 611.237 447.836C611.237 447.836 612.359 447.471 612.359 448.596C612.359 449.72 612.723 455.77 608.235 458.414C603.717 461.059 597.714 466.713 590.194 467.078C582.675 467.443 570.637 461.789 559.358 463.308C548.078 464.828 549.2 467.443 546.562 467.078C543.924 466.713 533.767 466.318 526.247 471.607C518.728 476.896 516.484 486.32 512.724 488.205C508.964 490.089 490.923 514.225 485.283 525.169C479.644 536.112 481.129 541.766 477.37 548.545C473.61 555.324 471.73 560.613 472.852 562.863C473.974 565.112 467.576 588.884 480.007 615.269C492.409 641.655 499.17 654.848 498.049 657.128C496.927 659.377 494.653 663.146 494.653 665.031V670.32C494.653 670.32 477.339 679.379 472.094 706.13C466.818 732.91 476.248 753.642 476.248 753.642L475.975 753.551C477.491 759.205 475.975 800.303 478.613 820.67C481.251 841.037 484.646 857.999 481.251 873.077C477.855 888.154 466.211 917.58 471.457 942.081V944H272.602C271.288 944 270.331 942.755 270.669 941.486L452.37 258.486C452.603 257.61 453.396 257 454.302 257Z" fill="white"/>
</svg>
